<svg width="22" height="24" viewBox="0 0 22 24" fill="none" xmlns="http://www.w3.org/2000/svg">
<path fill-rule="evenodd" clip-rule="evenodd" d="M6.33333 0C6.88562 0 7.33333 0.447715 7.33333 1V2.93333H14.6667V1C14.6667 0.447715 15.1144 0 15.6667 0C16.219 0 16.6667 0.447715 16.6667 1V2.93333H19.6667C21.0429 2.93333 22 4.12952 22 5.4V21.5333C22 22.8038 21.0429 24 19.6667 24H2.33333C0.957113 24 0 22.8038 0 21.5333V5.4C0 4.12952 0.957114 2.93333 2.33333 2.93333H5.33333V1C5.33333 0.447715 5.78105 0 6.33333 0ZM5.33333 4.93333H2.33333C2.27397 4.93333 2.20124 4.95773 2.13046 5.03558C2.05827 5.115 2 5.24115 2 5.4V8.8H20V5.4C20 5.24115 19.9417 5.115 19.8695 5.03558C19.7988 4.95773 19.726 4.93333 19.6667 4.93333H16.6667V6.13333C16.6667 6.68562 16.219 7.13333 15.6667 7.13333C15.1144 7.13333 14.6667 6.68562 14.6667 6.13333V4.93333H7.33333V6.13333C7.33333 6.68562 6.88562 7.13333 6.33333 7.13333C5.78105 7.13333 5.33333 6.68562 5.33333 6.13333V4.93333ZM20 10.8H2V21.5333C2 21.6922 2.05827 21.8183 2.13046 21.8978C2.20124 21.9756 2.27397 22 2.33333 22H19.6667C19.726 22 19.7988 21.9756 19.8695 21.8978C19.9417 21.8183 20 21.6922 20 21.5333V10.8Z" fill="#15104D"/>
</svg>
