<svg width="14" height="18" viewBox="0 0 14 18" fill="none" xmlns="http://www.w3.org/2000/svg">
<path fill-rule="evenodd" clip-rule="evenodd" d="M13 0C13.5523 0 14 0.447715 14 1V17C14 17.5523 13.5523 18 13 18C12.4477 18 12 17.5523 12 17V1C12 0.447715 12.4477 0 13 0ZM7 6C7.55228 6 8 6.44772 8 7V17C8 17.5523 7.55228 18 7 18C6.44772 18 6 17.5523 6 17V7C6 6.44772 6.44772 6 7 6ZM1 12C1.55228 12 2 12.4477 2 13V17C2 17.5523 1.55228 18 1 18C0.447715 18 0 17.5523 0 17V13C0 12.4477 0.447715 12 1 12Z" fill="#484473"/>
</svg>
